<?xml version="1.0" encoding="UTF-8" standalone="no"?><!DOCTYPE svg PUBLIC "-//W3C//DTD SVG 1.1//EN" "http://www.w3.org/Graphics/SVG/1.1/DTD/svg11.dtd"><svg xmlns="http://www.w3.org/2000/svg" xmlns:xlink="http://www.w3.org/1999/xlink" version="1.1" viewBox="0 0 30 30">
<desc>Created with SVGMaker Editor 2.2.3</desc>
<defs>
</defs>
<path transform="translate(0,0)" style="fill: rgb(0,0,0)" stroke-linecap="round" d="M0.5812 25.7901C0.5812 24.9365 0.8484 24.1795 1.3828 23.5115 1.9172 22.8435 2.5926 22.4131 3.4164 22.2275 3.6465 21.2107 4.1735 20.3794 4.9825 19.7263 5.7915 19.0732 6.7267 18.7466 7.7732 18.7466 8.7974 18.7466 9.7103 19.0657 10.5119 19.6966 11.3135 20.3275 11.833 21.1439 12.0705 22.1384L12.3154 22.1384C12.9834 22.1384 13.5994 22.3017 14.1635 22.6209 14.7276 22.94 15.1803 23.3853 15.5069 23.9494 15.8335 24.5135 16.0042 25.1221 16.0042 25.7901 16.0042 26.4432 15.8483 27.0518 15.5366 27.6085 15.2248 28.1651 14.7944 28.6104 14.2526 28.9444 13.7108 29.2784 13.1096 29.4565 12.4639 29.4788L4.1438 29.4788C3.1493 29.4343 2.3106 29.0558 1.6203 28.3432 0.9301 27.6382 0.5812 26.7846 0.5812 25.7901ZM1.8504 25.7901C1.8504 26.4358 2.0731 26.9924 2.5184 27.4674 2.9637 27.9425 3.5055 28.1948 4.1438 28.2319L12.449 28.2319C13.0873 28.2022 13.6291 27.9425 14.0744 27.4674 14.5272 26.9924 14.7498 26.4284 14.7498 25.7901 14.7498 25.1369 14.5049 24.5803 14.0225 24.1053 13.5401 23.6303 12.9686 23.3928 12.3006 23.3928L11.1131 23.3928C11.0314 23.3928 10.9869 23.3482 10.9869 23.2592L10.9349 22.8361C10.8533 22.0345 10.5045 21.3591 9.8959 20.8173 9.2872 20.2755 8.5822 20.0009 7.7732 20.0009 6.9642 20.0009 6.2516 20.2755 5.6579 20.8173 5.0567 21.3591 4.7153 22.0345 4.6411 22.8361L4.5817 23.2592C4.5817 23.3482 4.5297 23.3928 4.4333 23.3928L4.0399 23.3928C3.4164 23.467 2.8969 23.7342 2.4813 24.1869 2.0656 24.6397 1.8504 25.174 1.8504 25.7901Z"/>
<path transform="translate(0,0)" style="fill: rgb(0,0,0)" stroke-linecap="round" d="M7.87 11.42C7.87 11.18 7.95 10.97 8.12 10.8 8.29 10.64 8.5 10.56 8.72 10.56L10.76 10.56C10.99 10.56 11.18 10.64 11.34 10.81 11.49 10.98 11.57 11.18 11.57 11.42 11.57 11.66 11.5 11.86 11.35 12.03 11.2 12.2 11 12.28 10.77 12.28L8.73 12.28C8.5 12.28 8.3 12.2 8.13 12.03 7.96 11.86 7.87 11.66 7.87 11.42ZM10.73 18.35C10.73 18.12 10.81 17.92 10.96 17.74L12.43 16.31C12.58 16.15 12.78 16.08 13.02 16.08 13.26 16.08 13.46 16.16 13.62 16.31 13.78 16.46 13.86 16.65 13.86 16.88 13.86 17.12 13.78 17.34 13.62 17.52L12.2 18.94C11.79 19.26 11.38 19.26 10.97 18.94 10.81 18.78 10.73 18.58 10.73 18.35ZM10.73 4.51C10.73 4.28 10.81 4.08 10.96 3.9 11.16 3.73 11.37 3.65 11.6 3.65 11.82 3.65 12.02 3.73 12.19 3.89L13.62 5.36C13.78 5.51 13.86 5.71 13.86 5.95 13.86 6.19 13.78 6.39 13.62 6.55 13.46 6.71 13.26 6.79 13.02 6.79 12.78 6.79 12.58 6.71 12.43 6.55L10.97 5.12C10.81 4.96 10.73 4.75 10.73 4.51ZM13.28 11.42C13.28 10.49 13.51 9.62 13.98 8.82 14.45 8.02 15.08 7.38 15.89 6.91 16.7 6.44 17.56 6.21 18.49 6.21 19.19 6.21 19.86 6.35 20.51 6.63 21.15 6.91 21.71 7.28 22.17 7.75 22.64 8.22 23.01 8.77 23.28 9.41 23.55 10.05 23.69 10.73 23.69 11.43 23.69 12.37 23.46 13.24 22.99 14.04 22.52 14.84 21.89 15.47 21.09 15.94 20.29 16.41 19.42 16.64 18.48 16.64 17.54 16.64 16.67 16.41 15.87 15.94 15.07 15.47 14.44 14.84 13.97 14.04 13.52 13.23 13.28 12.36 13.28 11.42ZM14.98 11.42C14.98 12.4 15.32 13.23 16.01 13.92 16.69 14.61 17.52 14.96 18.5 14.96 19.48 14.96 20.31 14.61 21 13.92 21.69 13.23 22.04 12.4 22.04 11.42 22.04 10.46 21.69 9.64 21 8.95 20.31 8.27 19.48 7.93 18.5 7.93 17.53 7.93 16.7 8.27 16.02 8.95 15.32 9.64 14.98 10.46 14.98 11.42ZM17.64 19.2C17.64 18.96 17.72 18.76 17.89 18.6 18.06 18.44 18.26 18.36 18.49 18.36 18.73 18.36 18.94 18.44 19.1 18.6 19.26 18.76 19.34 18.96 19.34 19.2L19.34 21.19C19.34 21.43 19.26 21.64 19.09 21.81 18.92 21.98 18.72 22.06 18.49 22.06 18.26 22.06 18.05 21.98 17.89 21.81 17.72 21.64 17.64 21.43 17.64 21.19L17.64 19.2ZM17.64 3.7L17.64 1.66C17.64 1.43 17.72 1.23 17.89 1.06 18.06 0.89 18.26 0.8 18.5 0.8 18.74 0.8 18.93 0.88 19.1 1.05 19.27 1.22 19.35 1.42 19.35 1.65L19.35 3.7C19.35 3.93 19.27 4.12 19.1 4.28 18.93 4.44 18.73 4.51 18.5 4.51 18.27 4.51 18.06 4.43 17.9 4.28 17.74 4.13 17.64 3.93 17.64 3.7ZM23.16 16.88C23.16 16.65 23.24 16.46 23.39 16.32 23.54 16.16 23.73 16.09 23.95 16.09 24.19 16.09 24.39 16.17 24.55 16.32L26.01 17.75C26.17 17.92 26.25 18.13 26.25 18.36 26.25 18.59 26.17 18.79 26.01 18.95 25.61 19.26 25.21 19.26 24.81 18.95L23.39 17.53C23.24 17.35 23.16 17.14 23.16 16.88ZM23.16 5.96C23.16 5.71 23.24 5.51 23.39 5.37L24.81 3.9C24.98 3.74 25.18 3.66 25.4 3.66 25.64 3.66 25.84 3.74 26 3.91 26.17 4.08 26.25 4.28 26.25 4.51 26.25 4.76 26.17 4.97 26.01 5.13L24.55 6.56C24.37 6.72 24.17 6.8 23.95 6.8 23.72 6.8 23.54 6.72 23.39 6.56 23.24 6.4 23.16 6.2 23.16 5.96ZM25.42 11.42C25.42 11.18 25.5 10.98 25.66 10.8 25.82 10.64 26.01 10.56 26.23 10.56L28.25 10.56C28.48 10.56 28.68 10.65 28.85 10.82 29.02 10.99 29.11 11.19 29.11 11.42 29.11 11.65 29.02 11.85 28.85 12.02 28.68 12.19 28.48 12.27 28.25 12.27L26.23 12.27C26 12.27 25.8 12.19 25.65 12.02 25.5 11.85 25.42 11.66 25.42 11.42Z"/>
</svg>