<?xml version="1.0" encoding="UTF-8" standalone="no"?><!DOCTYPE svg PUBLIC "-//W3C//DTD SVG 1.1//EN" "http://www.w3.org/Graphics/SVG/1.1/DTD/svg11.dtd"><svg xmlns="http://www.w3.org/2000/svg" xmlns:xlink="http://www.w3.org/1999/xlink" version="1.1" viewBox="0 0 30 30">
<desc>Created with SVGMaker Editor 2.2.3</desc>
<defs>
</defs>
<path transform="translate(0,0)" style="fill: rgb(0,0,0)" stroke-linecap="round" d="M2.42 15.95C2.42 15.71 2.5 15.5 2.67 15.34 2.84 15.18 3.05 15.1 3.3 15.1L21.97 15.1C22.22 15.1 22.42 15.18 22.58 15.34 22.74 15.5 22.82 15.7 22.82 15.95 22.82 16.18 22.74 16.38 22.57 16.53 22.4 16.69 22.2 16.76 21.97 16.76L3.3 16.76C3.05 16.76 2.84 16.68 2.67 16.53 2.5 16.37 2.42 16.18 2.42 15.95ZM5.04 12.81C5.04 12.57 5.13 12.37 5.3 12.21 5.45 12.06 5.65 11.98 5.89 11.98L24.56 11.98C24.79 11.98 24.98 12.06 25.14 12.22 25.3 12.38 25.37 12.57 25.37 12.81 25.37 13.05 25.29 13.25 25.14 13.41 24.98 13.58 24.79 13.66 24.56 13.66L5.89 13.66C5.65 13.66 5.45 13.58 5.29 13.41 5.12 13.24 5.04 13.04 5.04 12.81ZM5.17 10.42C5.17 10.51 5.22 10.55 5.32 10.55L6.75 10.55C6.81 10.55 6.88 10.5 6.95 10.39 7.19 9.87 7.54 9.45 8.01 9.12 8.48 8.79 9 8.6 9.56 8.56L10.11 8.49C10.22 8.49 10.28 8.43 10.28 8.31L10.35 7.81C10.46 6.73 10.91 5.83 11.72 5.11 12.53 4.39 13.48 4.03 14.57 4.03 15.65 4.03 16.59 4.39 17.4 5.1 18.2 5.81 18.66 6.71 18.77 7.78L18.85 8.35C18.85 8.46 18.92 8.52 19.05 8.52L20.64 8.52C21.28 8.52 21.87 8.69 22.4 9.04 22.93 9.39 23.32 9.84 23.58 10.41 23.65 10.52 23.72 10.57 23.79 10.57L25.22 10.57C25.34 10.57 25.39 10.5 25.36 10.34 25.07 9.32 24.48 8.48 23.62 7.83 22.75 7.18 21.76 6.86 20.65 6.86L20.33 6.86C20 5.53 19.3 4.44 18.23 3.59 17.16 2.74 15.95 2.32 14.58 2.32 13.18 2.32 11.94 2.76 10.85 3.64 9.76 4.52 9.07 5.64 8.76 7 7.91 7.2 7.16 7.6 6.52 8.21 5.88 8.82 5.43 9.54 5.18 10.39L5.18 10.35C5.17 10.35 5.17 10.38 5.17 10.42ZM6.78 19.01C6.78 18.77 6.87 18.58 7.04 18.42 7.19 18.27 7.39 18.19 7.64 18.19L26.32 18.19C26.56 18.19 26.76 18.27 26.92 18.42 27.09 18.58 27.17 18.77 27.17 19 27.17 19.24 27.09 19.44 26.92 19.61 26.75 19.78 26.55 19.86 26.32 19.86L7.64 19.86C7.41 19.86 7.21 19.77 7.04 19.6 6.87 19.45 6.78 19.24 6.78 19.01Z"/>
<path transform="translate(0,0)" style="fill: rgb(0,0,0)" stroke-linecap="round" d="M6.9933 24.0004C6.9933 23.945 7.0137 23.8955 7.0516 23.8547 7.0895 23.8139 7.1361 23.7935 7.1915 23.7935 7.2468 23.7935 7.2964 23.8139 7.3342 23.8547 7.3721 23.8955 7.3925 23.9421 7.3925 24.0004 7.3925 24.0557 7.3721 24.1024 7.3342 24.1402 7.2964 24.1781 7.2468 24.1985 7.1944 24.1985 7.1419 24.1985 7.0924 24.1781 7.0545 24.1402 7.0108 24.0994 6.9933 24.0528 6.9933 24.0004ZM7.5703 24.0004C7.5703 23.945 7.5907 23.8955 7.6286 23.8547 7.6664 23.8139 7.7131 23.7935 7.7684 23.7935L8.7096 23.7935 8.0453 23.1291C8.0045 23.0941 7.9841 23.0475 7.9841 22.9921 7.9841 22.9368 8.0045 22.8901 8.0453 22.8493 8.0861 22.8085 8.1327 22.7881 8.188 22.7881 8.2434 22.7881 8.29 22.8085 8.3308 22.8493L8.9923 23.5108 8.9923 22.5754C8.9923 22.5201 9.0127 22.4705 9.0535 22.4297 9.0943 22.3889 9.1409 22.3685 9.1992 22.3685 9.2546 22.3685 9.3012 22.3889 9.3391 22.4297 9.377 22.4705 9.3974 22.5171 9.3974 22.5754L9.3974 23.5166 10.0647 22.8464C10.1055 22.8056 10.1521 22.7852 10.2045 22.7852 10.257 22.7852 10.3065 22.8056 10.3473 22.8464 10.3823 22.8872 10.3998 22.9338 10.3998 22.9892 10.3998 23.0446 10.3823 23.0912 10.3473 23.1262L9.6829 23.7906 10.6241 23.7906C10.6766 23.7906 10.7232 23.811 10.7611 23.8518 10.799 23.8926 10.8194 23.9392 10.8194 23.9975 10.8194 24.0499 10.799 24.0965 10.7611 24.1344 10.7232 24.1723 10.6766 24.1927 10.6241 24.1927L9.6829 24.1927 10.3502 24.86C10.3852 24.895 10.4027 24.9416 10.4027 24.997 10.4027 25.0523 10.3852 25.0989 10.3502 25.1397 10.3094 25.1805 10.2599 25.2009 10.2074 25.2009 10.155 25.2009 10.1055 25.1805 10.0676 25.1397L9.4003 24.4695 9.4003 25.4137C9.4003 25.469 9.3799 25.5186 9.342 25.5564 9.3041 25.5943 9.2575 25.6147 9.2021 25.6147 9.1467 25.6147 9.0972 25.5943 9.0564 25.5564 9.0156 25.5186 8.9952 25.469 8.9952 25.4137L8.9952 24.4754 8.3337 25.1368C8.2929 25.1776 8.2463 25.198 8.191 25.198 8.1356 25.198 8.089 25.1776 8.0482 25.1368 8.0074 25.096 7.987 25.0494 7.987 24.994 7.987 24.9387 8.0074 24.895 8.0482 24.8571L8.7184 24.1898 7.7743 24.1898C7.7189 24.1898 7.6723 24.1694 7.6344 24.1315 7.5878 24.0994 7.5703 24.0528 7.5703 24.0004ZM7.5732 25.4107C7.5732 25.3583 7.5936 25.3088 7.6344 25.2709 7.6693 25.2301 7.716 25.2097 7.7713 25.2097 7.8267 25.2097 7.8733 25.2301 7.9141 25.2709 7.9549 25.3117 7.9753 25.3583 7.9753 25.4107 7.9753 25.4632 7.9549 25.5127 7.9141 25.5506 7.8733 25.5914 7.8267 25.6118 7.7713 25.6118 7.716 25.6118 7.6693 25.5914 7.6344 25.5506 7.5936 25.5127 7.5732 25.4661 7.5732 25.4107ZM7.5732 22.5813C7.5732 22.5288 7.5936 22.4793 7.6344 22.4414 7.6693 22.4006 7.716 22.3802 7.7713 22.3802 7.8267 22.3802 7.8733 22.4006 7.9141 22.4414 7.9549 22.4822 7.9753 22.5288 7.9753 22.5813 7.9753 22.6337 7.9549 22.6832 7.9141 22.724 7.8733 22.7648 7.8267 22.7852 7.7713 22.7852 7.716 22.7852 7.6693 22.7648 7.6344 22.724 7.5936 22.6832 7.5732 22.6337 7.5732 22.5813ZM8.9865 25.9935C8.9865 25.9411 9.0069 25.8945 9.0477 25.8566 9.0885 25.8187 9.1351 25.7983 9.1934 25.7983 9.2487 25.7983 9.2954 25.8187 9.3332 25.8566 9.3711 25.8945 9.3915 25.9411 9.3915 25.9935 9.3915 26.0489 9.3711 26.0985 9.3332 26.1363 9.2954 26.1742 9.2487 26.1946 9.1934 26.1946 9.138 26.1946 9.0885 26.1742 9.0477 26.1363 9.0069 26.0985 8.9865 26.0518 8.9865 25.9935ZM8.9865 21.9985C8.9865 21.9431 9.0069 21.8935 9.0477 21.8557 9.0885 21.8178 9.1351 21.7974 9.1934 21.7974 9.2487 21.7974 9.2954 21.8178 9.3332 21.8557 9.3711 21.8935 9.3915 21.9431 9.3915 21.9985 9.3915 22.0509 9.3711 22.0975 9.3332 22.1354 9.2954 22.1733 9.2487 22.1937 9.1934 22.1937 9.138 22.1937 9.0885 22.1733 9.0477 22.1354 9.0069 22.0975 8.9865 22.0509 8.9865 21.9985ZM10.4056 25.4107C10.4056 25.3583 10.426 25.3088 10.4668 25.2709 10.5018 25.2301 10.5484 25.2097 10.6037 25.2097 10.6591 25.2097 10.7057 25.2301 10.7465 25.2709 10.7873 25.3117 10.8077 25.3583 10.8077 25.4107 10.8077 25.4632 10.7873 25.5127 10.7465 25.5506 10.7057 25.5914 10.6591 25.6118 10.6037 25.6118 10.5484 25.6118 10.5018 25.5914 10.4668 25.5506 10.426 25.5127 10.4056 25.4661 10.4056 25.4107ZM10.4056 22.5813C10.4056 22.5288 10.426 22.4793 10.4668 22.4414 10.5018 22.4006 10.5484 22.3802 10.6037 22.3802 10.6591 22.3802 10.7057 22.4006 10.7465 22.4414 10.7873 22.4822 10.8077 22.5288 10.8077 22.5813 10.8077 22.6337 10.7873 22.6832 10.7465 22.724 10.7057 22.7648 10.6591 22.7852 10.6037 22.7852 10.5484 22.7852 10.5018 22.7648 10.4668 22.724 10.426 22.6832 10.4056 22.6337 10.4056 22.5813ZM10.9884 24.0004C10.9884 23.945 11.0088 23.8955 11.0467 23.8547 11.0846 23.8139 11.1341 23.7935 11.1895 23.7935 11.2419 23.7935 11.2885 23.8139 11.3264 23.8547 11.3643 23.8955 11.3847 23.9421 11.3847 24.0004 11.3847 24.0528 11.3643 24.0994 11.3264 24.1373 11.2885 24.1752 11.2419 24.1956 11.1895 24.1956 11.1341 24.1956 11.0846 24.1752 11.0467 24.1373 11.0088 24.0994 10.9884 24.0528 10.9884 24.0004Z"/>
<path transform="translate(0,0)" style="fill: rgb(0,0,0)" vector-effect="non-scaling-stroke" stroke-linecap="round" d="M17.9479 24.0551C17.9479 23.9997 17.9683 23.9502 18.0062 23.9094 18.0441 23.8686 18.0907 23.8482 18.1461 23.8482 18.2014 23.8482 18.251 23.8686 18.2888 23.9094 18.3267 23.9502 18.3471 23.9968 18.3471 24.0551 18.3471 24.1104 18.3267 24.1571 18.2888 24.1949 18.251 24.2328 18.2014 24.2532 18.149 24.2532 18.0965 24.2532 18.047 24.2328 18.0091 24.1949 17.9654 24.1541 17.9479 24.1075 17.9479 24.0551ZM18.5249 24.0551C18.5249 23.9997 18.5453 23.9502 18.5832 23.9094 18.621 23.8686 18.6677 23.8482 18.723 23.8482L19.6642 23.8482 18.9999 23.1838C18.9591 23.1488 18.9387 23.1022 18.9387 23.0468 18.9387 22.9915 18.9591 22.9448 18.9999 22.904 19.0407 22.8632 19.0873 22.8428 19.1426 22.8428 19.198 22.8428 19.2446 22.8632 19.2854 22.904L19.9469 23.5655 19.9469 22.6301C19.9469 22.5748 19.9673 22.5252 20.0081 22.4844 20.0489 22.4436 20.0955 22.4232 20.1538 22.4232 20.2092 22.4232 20.2558 22.4436 20.2937 22.4844 20.3316 22.5252 20.352 22.5718 20.352 22.6301L20.352 23.5713 21.0193 22.9011C21.0601 22.8603 21.1067 22.8399 21.1591 22.8399 21.2116 22.8399 21.2611 22.8603 21.3019 22.9011 21.3369 22.9419 21.3544 22.9885 21.3544 23.0439 21.3544 23.0993 21.3369 23.1459 21.3019 23.1809L20.6375 23.8453 21.5787 23.8453C21.6312 23.8453 21.6778 23.8657 21.7157 23.9065 21.7536 23.9473 21.774 23.9939 21.774 24.0522 21.774 24.1046 21.7536 24.1512 21.7157 24.1891 21.6778 24.227 21.6312 24.2474 21.5787 24.2474L20.6375 24.2474 21.3048 24.9147C21.3398 24.9497 21.3573 24.9963 21.3573 25.0517 21.3573 25.107 21.3398 25.1536 21.3048 25.1944 21.264 25.2352 21.2145 25.2556 21.162 25.2556 21.1096 25.2556 21.0601 25.2352 21.0222 25.1944L20.3549 24.5242 20.3549 25.4684C20.3549 25.5237 20.3345 25.5733 20.2966 25.6111 20.2587 25.649 20.2121 25.6694 20.1567 25.6694 20.1013 25.6694 20.0518 25.649 20.011 25.6111 19.9702 25.5733 19.9498 25.5237 19.9498 25.4684L19.9498 24.5301 19.2883 25.1915C19.2475 25.2323 19.2009 25.2527 19.1456 25.2527 19.0902 25.2527 19.0436 25.2323 19.0028 25.1915 18.962 25.1507 18.9416 25.1041 18.9416 25.0487 18.9416 24.9934 18.962 24.9497 19.0028 24.9118L19.673 24.2445 18.7289 24.2445C18.6735 24.2445 18.6269 24.2241 18.589 24.1862 18.5424 24.1541 18.5249 24.1075 18.5249 24.0551ZM18.5278 25.4654C18.5278 25.413 18.5482 25.3635 18.589 25.3256 18.6239 25.2848 18.6706 25.2644 18.7259 25.2644 18.7813 25.2644 18.8279 25.2848 18.8687 25.3256 18.9095 25.3664 18.9299 25.413 18.9299 25.4654 18.9299 25.5179 18.9095 25.5674 18.8687 25.6053 18.8279 25.6461 18.7813 25.6665 18.7259 25.6665 18.6706 25.6665 18.6239 25.6461 18.589 25.6053 18.5482 25.5674 18.5278 25.5208 18.5278 25.4654ZM18.5278 22.636C18.5278 22.5835 18.5482 22.534 18.589 22.4961 18.6239 22.4553 18.6706 22.4349 18.7259 22.4349 18.7813 22.4349 18.8279 22.4553 18.8687 22.4961 18.9095 22.5369 18.9299 22.5835 18.9299 22.636 18.9299 22.6884 18.9095 22.7379 18.8687 22.7787 18.8279 22.8195 18.7813 22.8399 18.7259 22.8399 18.6706 22.8399 18.6239 22.8195 18.589 22.7787 18.5482 22.7379 18.5278 22.6884 18.5278 22.636ZM19.9411 26.0482C19.9411 25.9958 19.9615 25.9492 20.0023 25.9113 20.0431 25.8734 20.0897 25.853 20.148 25.853 20.2033 25.853 20.25 25.8734 20.2878 25.9113 20.3257 25.9492 20.3461 25.9958 20.3461 26.0482 20.3461 26.1036 20.3257 26.1532 20.2878 26.191 20.25 26.2289 20.2033 26.2493 20.148 26.2493 20.0926 26.2493 20.0431 26.2289 20.0023 26.191 19.9615 26.1532 19.9411 26.1065 19.9411 26.0482ZM19.9411 22.0532C19.9411 21.9978 19.9615 21.9482 20.0023 21.9104 20.0431 21.8725 20.0897 21.8521 20.148 21.8521 20.2033 21.8521 20.25 21.8725 20.2878 21.9104 20.3257 21.9482 20.3461 21.9978 20.3461 22.0532 20.3461 22.1056 20.3257 22.1522 20.2878 22.1901 20.25 22.228 20.2033 22.2484 20.148 22.2484 20.0926 22.2484 20.0431 22.228 20.0023 22.1901 19.9615 22.1522 19.9411 22.1056 19.9411 22.0532ZM21.3602 25.4654C21.3602 25.413 21.3806 25.3635 21.4214 25.3256 21.4564 25.2848 21.503 25.2644 21.5583 25.2644 21.6137 25.2644 21.6603 25.2848 21.7011 25.3256 21.7419 25.3664 21.7623 25.413 21.7623 25.4654 21.7623 25.5179 21.7419 25.5674 21.7011 25.6053 21.6603 25.6461 21.6137 25.6665 21.5583 25.6665 21.503 25.6665 21.4564 25.6461 21.4214 25.6053 21.3806 25.5674 21.3602 25.5208 21.3602 25.4654ZM21.3602 22.636C21.3602 22.5835 21.3806 22.534 21.4214 22.4961 21.4564 22.4553 21.503 22.4349 21.5583 22.4349 21.6137 22.4349 21.6603 22.4553 21.7011 22.4961 21.7419 22.5369 21.7623 22.5835 21.7623 22.636 21.7623 22.6884 21.7419 22.7379 21.7011 22.7787 21.6603 22.8195 21.6137 22.8399 21.5583 22.8399 21.503 22.8399 21.4564 22.8195 21.4214 22.7787 21.3806 22.7379 21.3602 22.6884 21.3602 22.636ZM21.943 24.0551C21.943 23.9997 21.9634 23.9502 22.0013 23.9094 22.0392 23.8686 22.0887 23.8482 22.1441 23.8482 22.1965 23.8482 22.2431 23.8686 22.281 23.9094 22.3189 23.9502 22.3393 23.9968 22.3393 24.0551 22.3393 24.1075 22.3189 24.1541 22.281 24.192 22.2431 24.2299 22.1965 24.2503 22.1441 24.2503 22.0887 24.2503 22.0392 24.2299 22.0013 24.192 21.9634 24.1541 21.943 24.1075 21.943 24.0551Z"/>
<path transform="translate(0,0)" style="fill: rgb(0,0,0)" vector-effect="non-scaling-stroke" stroke-linecap="round" d="M12.4479 24.0551C12.4479 23.9997 12.4683 23.9502 12.5062 23.9094 12.5441 23.8686 12.5907 23.8482 12.6461 23.8482 12.7014 23.8482 12.751 23.8686 12.7888 23.9094 12.8267 23.9502 12.8471 23.9968 12.8471 24.0551 12.8471 24.1104 12.8267 24.1571 12.7888 24.1949 12.751 24.2328 12.7014 24.2532 12.649 24.2532 12.5965 24.2532 12.547 24.2328 12.5091 24.1949 12.4654 24.1541 12.4479 24.1075 12.4479 24.0551ZM13.0249 24.0551C13.0249 23.9997 13.0453 23.9502 13.0832 23.9094 13.121 23.8686 13.1677 23.8482 13.223 23.8482L14.1642 23.8482 13.4999 23.1838C13.4591 23.1488 13.4387 23.1022 13.4387 23.0468 13.4387 22.9915 13.4591 22.9448 13.4999 22.904 13.5407 22.8632 13.5873 22.8428 13.6426 22.8428 13.698 22.8428 13.7446 22.8632 13.7854 22.904L14.4469 23.5655 14.4469 22.6301C14.4469 22.5748 14.4673 22.5252 14.5081 22.4844 14.5489 22.4436 14.5955 22.4232 14.6538 22.4232 14.7092 22.4232 14.7558 22.4436 14.7937 22.4844 14.8316 22.5252 14.852 22.5718 14.852 22.6301L14.852 23.5713 15.5193 22.9011C15.5601 22.8603 15.6067 22.8399 15.6591 22.8399 15.7116 22.8399 15.7611 22.8603 15.8019 22.9011 15.8369 22.9419 15.8544 22.9885 15.8544 23.0439 15.8544 23.0993 15.8369 23.1459 15.8019 23.1809L15.1375 23.8453 16.0787 23.8453C16.1312 23.8453 16.1778 23.8657 16.2157 23.9065 16.2536 23.9473 16.274 23.9939 16.274 24.0522 16.274 24.1046 16.2536 24.1512 16.2157 24.1891 16.1778 24.227 16.1312 24.2474 16.0787 24.2474L15.1375 24.2474 15.8048 24.9147C15.8398 24.9497 15.8573 24.9963 15.8573 25.0517 15.8573 25.107 15.8398 25.1536 15.8048 25.1944 15.764 25.2352 15.7145 25.2556 15.662 25.2556 15.6096 25.2556 15.5601 25.2352 15.5222 25.1944L14.8549 24.5242 14.8549 25.4684C14.8549 25.5237 14.8345 25.5733 14.7966 25.6111 14.7587 25.649 14.7121 25.6694 14.6567 25.6694 14.6013 25.6694 14.5518 25.649 14.511 25.6111 14.4702 25.5733 14.4498 25.5237 14.4498 25.4684L14.4498 24.5301 13.7883 25.1915C13.7475 25.2323 13.7009 25.2527 13.6456 25.2527 13.5902 25.2527 13.5436 25.2323 13.5028 25.1915 13.462 25.1507 13.4416 25.1041 13.4416 25.0487 13.4416 24.9934 13.462 24.9497 13.5028 24.9118L14.173 24.2445 13.2289 24.2445C13.1735 24.2445 13.1269 24.2241 13.089 24.1862 13.0424 24.1541 13.0249 24.1075 13.0249 24.0551ZM13.0278 25.4654C13.0278 25.413 13.0482 25.3635 13.089 25.3256 13.1239 25.2848 13.1706 25.2644 13.2259 25.2644 13.2813 25.2644 13.3279 25.2848 13.3687 25.3256 13.4095 25.3664 13.4299 25.413 13.4299 25.4654 13.4299 25.5179 13.4095 25.5674 13.3687 25.6053 13.3279 25.6461 13.2813 25.6665 13.2259 25.6665 13.1706 25.6665 13.1239 25.6461 13.089 25.6053 13.0482 25.5674 13.0278 25.5208 13.0278 25.4654ZM13.0278 22.636C13.0278 22.5835 13.0482 22.534 13.089 22.4961 13.1239 22.4553 13.1706 22.4349 13.2259 22.4349 13.2813 22.4349 13.3279 22.4553 13.3687 22.4961 13.4095 22.5369 13.4299 22.5835 13.4299 22.636 13.4299 22.6884 13.4095 22.7379 13.3687 22.7787 13.3279 22.8195 13.2813 22.8399 13.2259 22.8399 13.1706 22.8399 13.1239 22.8195 13.089 22.7787 13.0482 22.7379 13.0278 22.6884 13.0278 22.636ZM14.4411 26.0482C14.4411 25.9958 14.4615 25.9492 14.5023 25.9113 14.5431 25.8734 14.5897 25.853 14.648 25.853 14.7033 25.853 14.75 25.8734 14.7878 25.9113 14.8257 25.9492 14.8461 25.9958 14.8461 26.0482 14.8461 26.1036 14.8257 26.1532 14.7878 26.191 14.75 26.2289 14.7033 26.2493 14.648 26.2493 14.5926 26.2493 14.5431 26.2289 14.5023 26.191 14.4615 26.1532 14.4411 26.1065 14.4411 26.0482ZM14.4411 22.0532C14.4411 21.9978 14.4615 21.9482 14.5023 21.9104 14.5431 21.8725 14.5897 21.8521 14.648 21.8521 14.7033 21.8521 14.75 21.8725 14.7878 21.9104 14.8257 21.9482 14.8461 21.9978 14.8461 22.0532 14.8461 22.1056 14.8257 22.1522 14.7878 22.1901 14.75 22.228 14.7033 22.2484 14.648 22.2484 14.5926 22.2484 14.5431 22.228 14.5023 22.1901 14.4615 22.1522 14.4411 22.1056 14.4411 22.0532ZM15.8602 25.4654C15.8602 25.413 15.8806 25.3635 15.9214 25.3256 15.9564 25.2848 16.003 25.2644 16.0583 25.2644 16.1137 25.2644 16.1603 25.2848 16.2011 25.3256 16.2419 25.3664 16.2623 25.413 16.2623 25.4654 16.2623 25.5179 16.2419 25.5674 16.2011 25.6053 16.1603 25.6461 16.1137 25.6665 16.0583 25.6665 16.003 25.6665 15.9564 25.6461 15.9214 25.6053 15.8806 25.5674 15.8602 25.5208 15.8602 25.4654ZM15.8602 22.636C15.8602 22.5835 15.8806 22.534 15.9214 22.4961 15.9564 22.4553 16.003 22.4349 16.0583 22.4349 16.1137 22.4349 16.1603 22.4553 16.2011 22.4961 16.2419 22.5369 16.2623 22.5835 16.2623 22.636 16.2623 22.6884 16.2419 22.7379 16.2011 22.7787 16.1603 22.8195 16.1137 22.8399 16.0583 22.8399 16.003 22.8399 15.9564 22.8195 15.9214 22.7787 15.8806 22.7379 15.8602 22.6884 15.8602 22.636ZM16.443 24.0551C16.443 23.9997 16.4634 23.9502 16.5013 23.9094 16.5392 23.8686 16.5887 23.8482 16.6441 23.8482 16.6965 23.8482 16.7431 23.8686 16.781 23.9094 16.8189 23.9502 16.8393 23.9968 16.8393 24.0551 16.8393 24.1075 16.8189 24.1541 16.781 24.192 16.7431 24.2299 16.6965 24.2503 16.6441 24.2503 16.5887 24.2503 16.5392 24.2299 16.5013 24.192 16.4634 24.1541 16.443 24.1075 16.443 24.0551Z"/>
</svg>