<svg id="eJe5LrHMsb61" xmlns="http://www.w3.org/2000/svg" xmlns:xlink="http://www.w3.org/1999/xlink" viewBox="0 0 30 30" shape-rendering="geometricPrecision" text-rendering="geometricPrecision" project-id="2f9828e6572448e2a6c0934710ad7f28" export-id="b550cdfa25be4a2a886ac389dfd23bba" cached="false"><path d="M4.65,16.96c0,1.32.47,2.46,1.4,3.41.93.96,2.06,1.46,3.38,1.5.12,0,.18-.06.18-.17v-1.33c0-.12-.06-.18-.18-.18-.84-.04-1.57-.38-2.17-1.02s-.91-1.37-.91-2.22c0-.84.28-1.57.85-2.19s1.26-.97,2.1-1.04l.53-.07c.12,0,.19-.06.19-.18l.07-.5c.1-1.09.55-2.01,1.36-2.75s1.76-1.11,2.86-1.11c1.08,0,2.03.37,2.84,1.1s1.28,1.63,1.4,2.71l.07.58c0,.12.06.18.19.18h1.6c.9,0,1.67.32,2.32.97.64.64.97,1.41.97,2.3c0,.84-.3,1.58-.9,2.22-.6.63-1.33.97-2.18,1.02-.13,0-.2.06-.2.18v1.33c0,.11.07.17.2.17c1.33-.04,2.46-.54,3.38-1.5s1.38-2.09,1.38-3.42c0-.89-.22-1.72-.67-2.48-.44-.76-1.05-1.36-1.81-1.8s-1.59-.66-2.48-.66h-.31c-.33-1.34-1.03-2.43-2.11-3.29-1.07-.85-2.3-1.28-3.68-1.28-1.41,0-2.66.44-3.75,1.31s-1.79,1.99-2.1,3.35c-1.13.29-2.04.88-2.75,1.77s-1.07,1.93-1.07,3.09Zm5.4,7.02c0,.17.05.34.16.51s.27.28.47.35c.23.07.44.06.64-.04.19-.09.33-.28.39-.56l.14-.61c.05-.23.02-.44-.09-.63s-.28-.33-.52-.4c-.22-.07-.44-.04-.64.08s-.34.3-.4.53l-.14.59c0,.03-.01.09-.01.18Zm.76-2.9c0,.21.08.4.25.57.16.17.34.25.56.25.24,0,.44-.08.6-.24s.24-.35.24-.59c0-.23-.08-.43-.24-.59s-.36-.24-.6-.24c-.23,0-.42.08-.58.23-.15.18-.23.38-.23.61Zm.61-2.27c-.01.16.03.31.14.45.1.15.26.25.48.32.21.06.41.04.62-.07s.34-.28.41-.51l.28-.9c.07-.24.05-.46-.07-.65s-.3-.32-.54-.39c-.22-.07-.43-.05-.63.07-.2.11-.34.28-.41.5l-.24.92c0,.02-.01.06-.02.12-.01.05-.02.1-.02.14Z" transform="translate(-0.015 -2.7)"/><path d="" transform="translate(-0.015 -2.7)"/><path d="M18.12,18.59c0,.02-.01.06-.02.12" transform="translate(-0.015 -2.7)"/><path d="M7.46,8.863996c0-.050616.01858-.095905.053086-.133201s.076974-.055944.127405-.055944.095554.018648.13006.055944.053086.07992.053086.133201c0,.050616-.01858.093241-.053086.127873s-.079628.05328-.127405.05328-.0929-.018648-.127405-.05328C7.475926,8.954573,7.46,8.911948,7.46,8.863996Zm.525547,0c0-.050616.01858-.095905.053086-.133201s.076974-.055944.127405-.055944h.857332l-.605176-.607396c-.03716-.031968-.05574-.074592-.05574-.125209s.01858-.093241.05574-.130537.079628-.055944.13006-.055944.0929.018648.13006.055944l.602522.604732v-.855149c0-.050616.01858-.095905.05574-.133201s.079628-.055944.132714-.055944c.050431,0,.0929.018648.127405.055944s.053086.07992.053086.133201v.860477l.60783-.612724c.03716-.037296.079628-.055944.127405-.055944s.0929.018648.13006.055944c.031851.037296.047777.07992.047777.130537s-.015926.093241-.047777.125209L9.9099,8.672187h.857332c.047777,0,.090246.018648.124751.055944s.053086.07992.053086.133201c0,.047952-.01858.090577-.053086.125209s-.076974.05328-.124751.05328h-.857332l.60783.61006c.031851.031968.047777.074592.047777.125209s-.015926.093241-.047777.130537c-.03716.037296-.082283.055944-.13006.055944s-.0929-.018648-.127405-.055944l-.60783-.612724v.863141c0,.050616-.01858.095905-.053086.130537s-.076974.05328-.127405.05328-.095554-.018648-.132714-.05328-.05574-.07992-.05574-.130537v-.857813l-.602522.604732c-.03716.037296-.079628.055944-.13006.055944s-.0929-.018648-.13006-.055944-.05574-.07992-.05574-.130537.01858-.090577.05574-.125209l.610484-.61006h-.859987c-.050431,0-.0929-.018648-.127405-.05328-.042468-.029304-.058394-.071928-.058394-.119881Zm.002654,1.289384c0-.047952.01858-.093241.05574-.127873.031851-.037296.07432-.055944.124751-.055944s.0929.018648.13006.055944.05574.07992.05574.127873-.01858.093241-.05574.127873c-.03716.037296-.079628.055944-.13006.055944s-.0929-.018648-.124751-.055944c-.03716-.034632-.05574-.077256-.05574-.127873Zm0-2.586759c0-.047952.01858-.093241.05574-.127873.031851-.037296.07432-.055944.124751-.055944s.0929.018648.13006.055944.05574.07992.05574.127873-.01858.093241-.05574.130537-.079628.055944-.13006.055944-.0929-.018648-.124751-.055944c-.03716-.037296-.05574-.082584-.05574-.130537Zm1.287326,3.119563c0-.047952.01858-.090577.05574-.125209s.079628-.05328.132714-.05328c.050431,0,.0929.018648.127405.05328s.053086.077256.053086.125209c0,.050616-.01858.095905-.053086.130537s-.076974.05328-.127405.05328-.095554-.018648-.132714-.05328-.05574-.077256-.05574-.130537Zm0-3.652366c0-.050616.01858-.095905.05574-.130537s.079628-.05328.132714-.05328c.050431,0,.0929.018648.127405.05328s.053086.07992.053086.130537c0,.047952-.01858.090577-.053086.125209s-.076974.05328-.127405.05328-.095554-.018648-.132714-.05328-.05574-.077256-.05574-.125209Zm1.292634,3.119563c0-.047952.01858-.093241.05574-.127873.031851-.037296.07432-.055944.124751-.055944s.0929.018648.13006.055944.05574.07992.05574.127873-.01858.093241-.05574.127873c-.03716.037296-.079628.055944-.13006.055944s-.0929-.018648-.124751-.055944c-.03716-.034632-.05574-.077256-.05574-.127873Zm0-2.586759c0-.047952.01858-.093241.05574-.127873.031851-.037296.07432-.055944.124751-.055944s.0929.018648.13006.055944.05574.07992.05574.127873-.01858.093241-.05574.130537-.079628.055944-.13006.055944-.0929-.018648-.124751-.055944c-.03716-.037296-.05574-.082584-.05574-.130537Zm.530856,1.297376c0-.050616.01858-.095905.053086-.133201s.079628-.055944.13006-.055944c.047777,0,.090246.018648.124751.055944s.053086.07992.053086.133201c0,.047952-.01858.090577-.053086.125209s-.076974.05328-.124751.05328c-.050431,0-.095554-.018648-.13006-.05328s-.053086-.077256-.053086-.125209Z" transform="translate(7.54 7.15)"/><path d="M7.46,8.863996c0-.050616.01858-.095905.053086-.133201s.076974-.055944.127405-.055944.095554.018648.13006.055944.053085.079921.053085.133201c0,.050616-.01858.093241-.053085.127873s-.079629.05328-.127406.05328-.092899-.018648-.127405-.05328C7.475926,8.954573,7.46,8.911948,7.46,8.863996Zm.525547,0c0-.050616.01858-.095905.053086-.133201s.076974-.055944.127405-.055944h.857333l-.605176-.607396c-.03716-.031968-.05574-.074592-.05574-.125208s.01858-.093241.05574-.130537.079628-.055945.13006-.055945.0929.018649.13006.055945l.602521.604731v-.855149c0-.050616.01858-.095904.05574-.133201s.079628-.055944.132714-.055944c.050431,0,.0929.018648.127405.055944s.053086.079921.053086.133201v.860477l.60783-.612723c.03716-.037296.079629-.055945.127406-.055945s.092899.018649.130059.055945c.031852.037296.047777.07992.047777.130537s-.015925.09324-.047777.125208L9.9099,8.672187h.857333c.047777,0,.090245.018648.124751.055944s.053086.079921.053086.133201c0,.047952-.01858.090577-.053086.125209s-.076974.05328-.124751.05328h-.857333l.607831.61006c.031851.031968.047777.074592.047777.125208s-.015926.093241-.047777.130537c-.03716.037296-.082283.055945-.13006.055945s-.0929-.018649-.127406-.055945l-.60783-.612723v.863141c0,.050616-.01858.095904-.053085.130537s-.076974.05328-.127406.05328-.095554-.018648-.132714-.05328-.05574-.079921-.05574-.130537v-.857813l-.602521.604731c-.03716.037296-.079629.055945-.13006.055945s-.0929-.018649-.13006-.055945-.05574-.07992-.05574-.130537.01858-.090576.05574-.125208l.610485-.61006h-.859987c-.050431,0-.0929-.018648-.127405-.05328-.042469-.029304-.058395-.071929-.058395-.119881Zm.002655,1.289384c0-.047953.01858-.093241.05574-.127873.031851-.037296.074319-.055944.124751-.055944s.0929.018648.130059.055944.05574.07992.05574.127873-.01858.09324-.05574.127872c-.037159.037297-.079628.055945-.130059.055945s-.0929-.018648-.124751-.055945c-.03716-.034632-.05574-.077256-.05574-.127872Zm0-2.58676c0-.047952.01858-.09324.05574-.127872.031851-.037297.074319-.055945.124751-.055945s.0929.018648.130059.055945.05574.07992.05574.127872-.01858.093241-.05574.130537-.079628.055944-.130059.055944-.0929-.018648-.124751-.055944c-.03716-.037296-.05574-.082584-.05574-.130537Zm1.287326,3.119563c0-.047952.018579-.090577.055739-.125209s.079629-.05328.132714-.05328c.050432,0,.0929.018648.127406.05328s.053085.077257.053085.125209c0,.050616-.018579.095904-.053085.130537s-.076974.05328-.127406.05328-.095554-.018648-.132714-.05328-.055739-.077257-.055739-.130537Zm0-3.652366c0-.050616.018579-.095904.055739-.130537s.079629-.05328.132714-.05328c.050432,0,.0929.018648.127406.05328s.053085.079921.053085.130537c0,.047952-.018579.090577-.053085.125209s-.076974.05328-.127406.05328-.095554-.018648-.132714-.05328-.055739-.077257-.055739-.125209Zm1.292634,3.119563c0-.047953.01858-.093241.05574-.127873.031851-.037296.07432-.055944.124751-.055944s.0929.018648.13006.055944.05574.07992.05574.127873-.01858.09324-.05574.127872c-.03716.037297-.079629.055945-.13006.055945s-.0929-.018648-.124751-.055945c-.03716-.034632-.05574-.077256-.05574-.127872Zm0-2.58676c0-.047952.01858-.09324.05574-.127872.031851-.037297.07432-.055945.124751-.055945s.0929.018648.13006.055945.05574.07992.05574.127872-.01858.093241-.05574.130537-.079629.055944-.13006.055944-.0929-.018648-.124751-.055944c-.03716-.037296-.05574-.082584-.05574-.130537Zm.530856,1.297376c0-.050616.01858-.095905.053086-.133201s.079628-.055944.130059-.055944c.047777,0,.090246.018648.124751.055944s.053086.079921.053086.133201c0,.047952-.01858.090577-.053086.125209s-.076974.05328-.124751.05328c-.050431,0-.095554-.018648-.130059-.05328s-.053086-.077257-.053086-.125209Z" transform="translate(6.645 11.25)"/></svg>
