<svg id="ewY0erAG1E21" xmlns="http://www.w3.org/2000/svg" xmlns:xlink="http://www.w3.org/1999/xlink" viewBox="0 0 30 30" shape-rendering="geometricPrecision" text-rendering="geometricPrecision" project-id="2f9828e6572448e2a6c0934710ad7f28" export-id="4c16206845544f64bd989c9cd569fe28" cached="false"><path d="M4.65,16.96c0,1.32.47,2.46,1.4,3.41.93.96,2.06,1.46,3.38,1.5.12,0,.18-.06.18-.17v-1.33c0-.12-.06-.18-.18-.18-.84-.04-1.57-.38-2.17-1.02s-.91-1.37-.91-2.22c0-.84.28-1.57.85-2.19s1.26-.97,2.1-1.04l.53-.07c.12,0,.19-.06.19-.18l.07-.5c.1-1.09.55-2.01,1.36-2.75s1.76-1.11,2.86-1.11c1.08,0,2.03.37,2.84,1.1s1.28,1.63,1.4,2.71l.07.58c0,.12.06.18.19.18h1.6c.9,0,1.67.32,2.32.97.64.64.97,1.41.97,2.3c0,.84-.3,1.58-.9,2.22-.6.63-1.33.97-2.18,1.02-.13,0-.2.06-.2.18v1.33c0,.11.07.17.2.17c1.33-.04,2.46-.54,3.38-1.5s1.38-2.09,1.38-3.42c0-.89-.22-1.72-.67-2.48-.44-.76-1.05-1.36-1.81-1.8s-1.59-.66-2.48-.66h-.31c-.33-1.34-1.03-2.43-2.11-3.29-1.07-.85-2.3-1.28-3.68-1.28-1.41,0-2.66.44-3.75,1.31s-1.79,1.99-2.1,3.35c-1.13.29-2.04.88-2.75,1.77s-1.07,1.93-1.07,3.09Zm5.4,7.02c0,.17.05.34.16.51s.27.28.47.35c.23.07.44.06.64-.04.19-.09.33-.28.39-.56l.14-.61c.05-.23.02-.44-.09-.63s-.28-.33-.52-.4c-.22-.07-.44-.04-.64.08s-.34.3-.4.53l-.14.59c0,.03-.01.09-.01.18Zm.99-3.51" transform="translate(-0.015 -2.7)"/><path d="M11.42,18.81c-.01.16.03.31.14.45.1.15.26.25.48.32.21.06.41.04.62-.07s.34-.28.41-.51l.28-.9c.07-.24.05-.46-.07-.65s-.3-.32-.54-.39c-.22-.07-.43-.05-.63.07-.2.11-.34.28-.41.5l-.24.92c0,.02-.01.06-.02.12-.01.05-.02.1-.02.14Zm1.17,8.29c0,.18.05.34.15.5s.26.27.48.33c.08.02.17.03.25.03.43,0,.69-.2.79-.61l.14-.59c.06-.26.03-.48-.08-.68-.12-.2-.29-.32-.52-.37-.21-.07-.42-.05-.63.07s-.34.29-.41.51l-.14.59c-.02.09-.03.16-.03.22Zm1.4-5.17c-.01.15.03.31.13.47s.25.26.45.3c.23.06.44.04.64-.06s.33-.29.41-.56l.27-.9c.07-.22.05-.43-.07-.63s-.29-.33-.53-.4c-.22-.07-.43-.04-.64.08s-.34.3-.41.53l-.23.9c-.01.08-.02.17-.02.27Zm2.76,2.15c0,.16.05.32.15.48s.26.27.46.33c.03,0,.08.01.14.02s.1.02.14.02c.41,0,.66-.22.76-.66l.14-.6c.07-.21.05-.42-.07-.63-.11-.21-.28-.34-.51-.41-.25-.06-.48-.04-.68.08s-.34.29-.41.53l-.09.59c0,.02-.01.07-.02.12s-.01.09-.01.13Z" transform="translate(-0.015 -2.7)"/><path d="M18.1,18.81c0,.17.05.33.16.48s.27.26.49.32c.02,0,.06.01.12.02s.11.02.14.02c.1,0,.22-.03.36-.09.21-.11.35-.29.41-.52l.24-.9c.06-.23.04-.44-.08-.63-.11-.2-.28-.33-.51-.4s-.44-.05-.64.06c-.19.11-.33.27-.39.51l-.28.91c0,.02-.01.06-.02.12c0,.03,0,.07,0,.1Z" transform="translate(-0.015 -2.7)"/><path d="M7.46,8.357992c0-.037899.013935-.071809.039814-.099735s.057731-.041889.095554-.041889.071666.013963.097545.041889.039814.059841.039814.099735c0,.037899-.013935.069814-.039814.095746s-.059721.039894-.095554.039894-.069675-.013963-.095554-.039894C7.471944,8.425812,7.46,8.393897,7.46,8.357992Zm.394161,0c0-.037899.013935-.071809.039814-.099735s.05773-.041889.095554-.041889h.642999l-.453882-.454791c-.02787-.023936-.041805-.055851-.041805-.093751s.013935-.069814.041805-.09774.059722-.041889.097545-.041889.069675.013963.097545.041889l.451891.452797v-.640299c0-.037899.013935-.071809.041805-.099734s.059721-.041889.099535-.041889c.037824,0,.069675.013963.095555.041889s.039814.059841.039814.099734v.644288l.455872-.458781c.02787-.027925.059722-.041888.095554-.041888s.069675.013963.097545.041888c.023889.027926.035833.059841.035833.097741s-.011944.069814-.035833.093751l-.453882.454791h.643c.035832,0,.067684.013963.093563.041888s.039814.059841.039814.099735c0,.035905-.013935.06782-.039814.093751s-.057731.039894-.093563.039894h-.643l.455873.456786c.023888.023936.035833.055852.035833.093751s-.011945.069814-.035833.09774c-.02787.027926-.061712.041889-.097545.041889s-.069675-.013963-.095554-.041889l-.455873-.45878v.646282c0,.037899-.013934.071809-.039814.09774s-.05773.039894-.095554.039894-.071665-.013963-.099535-.039894-.041805-.059841-.041805-.09774v-.642293l-.451891.452796c-.02787.027926-.059722.041889-.097545.041889s-.069675-.013963-.097545-.041889-.041805-.059841-.041805-.09774.013935-.06782.041805-.093751L8.6385,8.487647h-.64499c-.037823,0-.069675-.013962-.095554-.039894-.031851-.021941-.043795-.053856-.043795-.089761Zm.00199.965434c0-.035904.013935-.069814.041805-.095745.023889-.027926.05574-.041889.093564-.041889s.069674.013963.097544.041889.041805.059841.041805.095745-.013935.069815-.041805.095746c-.02787.027925-.059721.041888-.097544.041888s-.069675-.013963-.093564-.041888c-.02787-.025931-.041805-.057847-.041805-.095746Zm0-1.936852c0-.035905.013935-.069815.041805-.095746.023889-.027925.05574-.041888.093564-.041888s.069674.013963.097544.041888.041805.059841.041805.095746-.013935.069814-.041805.09774-.059721.041889-.097544.041889-.069675-.013963-.093564-.041889c-.02787-.027926-.041805-.061836-.041805-.09774Zm.965495,2.335792c0-.035905.013935-.06782.041805-.093751s.059721-.039894.099535-.039894c.037824,0,.069675.013963.095554.039894s.039814.057846.039814.093751c0,.037899-.013935.071809-.039814.09774s-.05773.039894-.095554.039894-.071665-.013963-.099535-.039894-.041805-.057846-.041805-.09774Zm0-2.734732c0-.037899.013935-.071809.041805-.09774s.059721-.039894.099535-.039894c.037824,0,.069675.013963.095554.039894s.039814.059841.039814.09774c0,.035905-.013935.06782-.039814.093751s-.05773.039894-.095554.039894-.071665-.013963-.099535-.039894-.041805-.057846-.041805-.093751Zm.969475,2.335792c0-.035904.013935-.069814.041805-.095745.023889-.027926.05574-.041889.093564-.041889s.069675.013963.097545.041889.041804.059841.041804.095745-.013935.069815-.041804.095746c-.02787.027925-.059722.041888-.097545.041888s-.069675-.013963-.093564-.041888c-.02787-.025931-.041805-.057847-.041805-.095746Zm0-1.936852c0-.035905.013935-.069815.041805-.095746.023889-.027925.05574-.041888.093564-.041888s.069675.013963.097545.041888.041804.059841.041804.095746-.013935.069814-.041804.09774-.059722.041889-.097545.041889-.069675-.013963-.093564-.041889c-.02787-.027926-.041805-.061836-.041805-.09774Zm.398142.971418c0-.037899.013935-.071809.039815-.099735s.059721-.041889.097544-.041889c.035833,0,.067685.013963.093564.041889s.039814.059841.039814.099735c0,.035905-.013935.06782-.039814.093751s-.057731.039894-.093564.039894c-.037823,0-.071665-.013963-.097544-.039894s-.039815-.057846-.039815-.093751Z" transform="translate(2.621309 10.036766)"/><path d="M7.46,8.357992c0-.037899.013935-.071809.039814-.099735s.057731-.041889.095554-.041889.071666.013963.097545.041889.039814.059841.039814.099735c0,.037899-.013935.069814-.039814.095746s-.059721.039894-.095554.039894-.069675-.013963-.095554-.039894C7.471944,8.425812,7.46,8.393897,7.46,8.357992Zm.394161,0c0-.037899.013935-.071809.039814-.099735s.05773-.041889.095554-.041889h.642999l-.453882-.454791c-.02787-.023936-.041805-.055851-.041805-.093751s.013935-.069814.041805-.09774.059722-.041889.097545-.041889.069675.013963.097545.041889l.451891.452797v-.640299c0-.037899.013935-.071809.041805-.099734s.059721-.041889.099535-.041889c.037824,0,.069675.013963.095555.041889s.039814.059841.039814.099734v.644288l.455872-.458781c.02787-.027925.059722-.041888.095554-.041888s.069675.013963.097545.041888c.023889.027926.035833.059841.035833.097741s-.011944.069814-.035833.093751l-.453882.454791h.643c.035832,0,.067684.013963.093563.041888s.039814.059841.039814.099735c0,.035905-.013935.06782-.039814.093751s-.057731.039894-.093563.039894h-.643l.455873.456786c.023888.023936.035833.055852.035833.093751s-.011945.069814-.035833.09774c-.02787.027926-.061712.041889-.097545.041889s-.069675-.013963-.095554-.041889l-.455873-.45878v.646282c0,.037899-.013934.071809-.039814.09774s-.05773.039894-.095554.039894-.071665-.013963-.099535-.039894-.041805-.059841-.041805-.09774v-.642293l-.451891.452796c-.02787.027926-.059722.041889-.097545.041889s-.069675-.013963-.097545-.041889-.041805-.059841-.041805-.09774.013935-.06782.041805-.093751L8.6385,8.487647h-.64499c-.037823,0-.069675-.013962-.095554-.039894-.031851-.021941-.043795-.053856-.043795-.089761Zm.00199.965434c0-.035904.013935-.069814.041805-.095745.023889-.027926.05574-.041889.093564-.041889s.069674.013963.097544.041889.041805.059841.041805.095745-.013935.069815-.041805.095746c-.02787.027925-.059721.041888-.097544.041888s-.069675-.013963-.093564-.041888c-.02787-.025931-.041805-.057847-.041805-.095746Zm0-1.936852c0-.035905.013935-.069815.041805-.095746.023889-.027925.05574-.041888.093564-.041888s.069674.013963.097544.041888.041805.059841.041805.095746-.013935.069814-.041805.09774-.059721.041889-.097544.041889-.069675-.013963-.093564-.041889c-.02787-.027926-.041805-.061836-.041805-.09774Zm.965495,2.335792c0-.035905.013935-.06782.041805-.093751s.059721-.039894.099535-.039894c.037824,0,.069675.013963.095554.039894s.039814.057846.039814.093751c0,.037899-.013935.071809-.039814.09774s-.05773.039894-.095554.039894-.071665-.013963-.099535-.039894-.041805-.057846-.041805-.09774Zm0-2.734732c0-.037899.013935-.071809.041805-.09774s.059721-.039894.099535-.039894c.037824,0,.069675.013963.095554.039894s.039814.059841.039814.09774c0,.035905-.013935.06782-.039814.093751s-.05773.039894-.095554.039894-.071665-.013963-.099535-.039894-.041805-.057846-.041805-.093751Zm.969475,2.335792c0-.035904.013935-.069814.041805-.095745.023889-.027926.05574-.041889.093564-.041889s.069675.013963.097545.041889.041804.059841.041804.095745-.013935.069815-.041804.095746c-.02787.027925-.059722.041888-.097545.041888s-.069675-.013963-.093564-.041888c-.02787-.025931-.041805-.057847-.041805-.095746Zm0-1.936852c0-.035905.013935-.069815.041805-.095746.023889-.027925.05574-.041888.093564-.041888s.069675.013963.097545.041888.041804.059841.041804.095746-.013935.069814-.041804.09774-.059722.041889-.097545.041889-.069675-.013963-.093564-.041889c-.02787-.027926-.041805-.061836-.041805-.09774Zm.398142.971418c0-.037899.013935-.071809.039815-.099735s.059721-.041889.097544-.041889c.035833,0,.067685.013963.093564.041889s.039814.059841.039814.099735c0,.035905-.013935.06782-.039814.093751s-.057731.039894-.093564.039894c-.037823,0-.071665-.013963-.097544-.039894s-.039815-.057846-.039815-.093751Z" transform="translate(5.017502 13.046766)"/><path d="M7.46,8.357992c0-.037899.013935-.071809.039814-.099735s.057731-.041889.095554-.041889.071666.013963.097545.041889.039814.059841.039814.099735c0,.037899-.013935.069814-.039814.095746s-.059721.039894-.095554.039894-.069675-.013963-.095554-.039894C7.471944,8.425812,7.46,8.393897,7.46,8.357992Zm.394161,0c0-.037899.013935-.071809.039814-.099735s.05773-.041889.095554-.041889h.642999l-.453882-.454791c-.02787-.023936-.041805-.055851-.041805-.093751s.013935-.069814.041805-.09774.059722-.041889.097545-.041889.069675.013963.097545.041889l.451891.452797v-.640299c0-.037899.013935-.071809.041805-.099734s.059721-.041889.099535-.041889c.037824,0,.069675.013963.095555.041889s.039814.059841.039814.099734v.644288l.455872-.458781c.02787-.027925.059722-.041888.095554-.041888s.069675.013963.097545.041888c.023889.027926.035833.059841.035833.097741s-.011944.069814-.035833.093751l-.453882.454791h.643c.035832,0,.067684.013963.093563.041888s.039814.059841.039814.099735c0,.035905-.013935.06782-.039814.093751s-.057731.039894-.093563.039894h-.643l.455873.456786c.023888.023936.035833.055852.035833.093751s-.011945.069814-.035833.09774c-.02787.027926-.061712.041889-.097545.041889s-.069675-.013963-.095554-.041889l-.455873-.45878v.646282c0,.037899-.013934.071809-.039814.09774s-.05773.039894-.095554.039894-.071665-.013963-.099535-.039894-.041805-.059841-.041805-.09774v-.642293l-.451891.452796c-.02787.027926-.059722.041889-.097545.041889s-.069675-.013963-.097545-.041889-.041805-.059841-.041805-.09774.013935-.06782.041805-.093751L8.6385,8.487647h-.64499c-.037823,0-.069675-.013962-.095554-.039894-.031851-.021941-.043795-.053856-.043795-.089761Zm.00199.965434c0-.035904.013935-.069814.041805-.095745.023889-.027926.05574-.041889.093564-.041889s.069674.013963.097544.041889.041805.059841.041805.095745-.013935.069815-.041805.095746c-.02787.027925-.059721.041888-.097544.041888s-.069675-.013963-.093564-.041888c-.02787-.025931-.041805-.057847-.041805-.095746Zm0-1.936852c0-.035905.013935-.069815.041805-.095746.023889-.027925.05574-.041888.093564-.041888s.069674.013963.097544.041888.041805.059841.041805.095746-.013935.069814-.041805.09774-.059721.041889-.097544.041889-.069675-.013963-.093564-.041889c-.02787-.027926-.041805-.061836-.041805-.09774Zm.965495,2.335792c0-.035905.013935-.06782.041805-.093751s.059721-.039894.099535-.039894c.037824,0,.069675.013963.095554.039894s.039814.057846.039814.093751c0,.037899-.013935.071809-.039814.09774s-.05773.039894-.095554.039894-.071665-.013963-.099535-.039894-.041805-.057846-.041805-.09774Zm0-2.734732c0-.037899.013935-.071809.041805-.09774s.059721-.039894.099535-.039894c.037824,0,.069675.013963.095554.039894s.039814.059841.039814.09774c0,.035905-.013935.06782-.039814.093751s-.05773.039894-.095554.039894-.071665-.013963-.099535-.039894-.041805-.057846-.041805-.093751Zm.969475,2.335792c0-.035904.013935-.069814.041805-.095745.023889-.027926.05574-.041889.093564-.041889s.069675.013963.097545.041889.041804.059841.041804.095745-.013935.069815-.041804.095746c-.02787.027925-.059722.041888-.097545.041888s-.069675-.013963-.093564-.041888c-.02787-.025931-.041805-.057847-.041805-.095746Zm0-1.936852c0-.035905.013935-.069815.041805-.095746.023889-.027925.05574-.041888.093564-.041888s.069675.013963.097545.041888.041804.059841.041804.095746-.013935.069814-.041804.09774-.059722.041889-.097545.041889-.069675-.013963-.093564-.041889c-.02787-.027926-.041805-.061836-.041805-.09774Zm.398142.971418c0-.037899.013935-.071809.039815-.099735s.059721-.041889.097544-.041889c.035833,0,.067685.013963.093564.041889s.039814.059841.039814.099735c0,.035905-.013935.06782-.039814.093751s-.057731.039894-.093564.039894c-.037823,0-.071665-.013963-.097544-.039894s-.039815-.057846-.039815-.093751Z" transform="translate(9.125 10.036766)"/></svg>
