<svg id="eICst1PvMui1" xmlns="http://www.w3.org/2000/svg" xmlns:xlink="http://www.w3.org/1999/xlink" viewBox="0 0 30 30" shape-rendering="geometricPrecision" text-rendering="geometricPrecision" project-id="2f9828e6572448e2a6c0934710ad7f28" export-id="2ac6f1066e4845a38fd2585cf66e7292" cached="false"><path d="M4.64,16.95c0-1.16.35-2.18,1.06-3.08s1.62-1.48,2.74-1.76c.31-1.36,1.01-2.48,2.1-3.36s2.34-1.31,3.75-1.31c1.38,0,2.6.43,3.68,1.28s1.78,1.95,2.1,3.29h.32c.89,0,1.72.22,2.48.66s1.37,1.04,1.81,1.8.67,1.59.67,2.48c0,1.32-.46,2.47-1.39,3.42-.92.96-2.05,1.46-3.38,1.5-.13,0-.2-.06-.2-.17v-1.33c0-.12.07-.18.2-.18.85-.04,1.58-.38,2.18-1.02s.9-1.38.9-2.23c0-.89-.32-1.65-.97-2.3s-1.42-.97-2.32-.97h-1.61c-.12,0-.18-.06-.18-.17l-.08-.58c-.11-1.08-.58-1.99-1.39-2.72-.82-.73-1.76-1.1-2.85-1.1-1.1,0-2.05.37-2.86,1.11s-1.27,1.65-1.37,2.75l-.06.5c0,.12-.07.19-.2.19l-.53.07c-.83.07-1.53.41-2.1,1.04s-.85,1.35-.85,2.19c0,.85.3,1.59.9,2.23s1.33.97,2.18,1.02c.11,0,.17.06.17.18v1.33c0,.11-.06.17-.17.17-1.34-.04-2.47-.54-3.4-1.5-.87-.96-1.33-2.11-1.33-3.43Z" transform="translate(0.632911 -2.44)"/><path d="M7.46,8.853976c0-.050364.01858-.095427.053086-.132538s.076974-.055666.127405-.055666.095554.018555.13006.055666.053085.079523.053085.132538c0,.050365-.01858.092777-.053085.127237s-.079629.053015-.127406.053015-.092899-.018555-.127405-.053015C7.475926,8.944102,7.46,8.90169,7.46,8.853976Zm.525547,0c0-.050364.01858-.095427.053086-.132538s.076974-.055666.127405-.055666h.857333l-.605176-.604374c-.03716-.031809-.05574-.074221-.05574-.124586s.01858-.092776.05574-.129887.079628-.055666.13006-.055666.0929.018555.13006.055666l.602521.601723v-.850895c0-.050364.01858-.095427.05574-.132538s.079628-.055666.132714-.055666c.050431,0,.0929.018556.127405.055666s.053086.079523.053086.132538v.856197l.60783-.609676c.03716-.03711.079629-.055666.127406-.055666s.092899.018556.130059.055666c.031852.037111.047777.079523.047777.129888s-.015925.092776-.047777.124586L9.9099,8.663121h.857333c.047777,0,.090245.018556.124751.055666s.053086.079523.053086.132538c0,.047714-.01858.090126-.053086.124586s-.076974.053015-.124751.053015h-.857333l.607831.607025c.031851.031809.047777.074221.047777.124586s-.015926.092776-.047777.129887c-.03716.037111-.082283.055666-.13006.055666s-.0929-.018555-.127406-.055666l-.60783-.609675v.858847c0,.050364-.01858.095427-.053085.129887s-.076974.053015-.127406.053015-.095554-.018555-.132714-.053015-.05574-.079523-.05574-.129887v-.853546l-.602521.601723c-.03716.037111-.079629.055666-.13006.055666s-.0929-.018555-.13006-.055666-.05574-.079523-.05574-.129887.01858-.090126.05574-.124586l.610485-.607024h-.859987c-.050431,0-.0929-.018556-.127405-.053016-.042469-.029158-.058395-.07157-.058395-.119284Zm.002655,1.282969c0-.047714.01858-.092777.05574-.127237.031851-.03711.074319-.055666.124751-.055666s.0929.018556.130059.055666.05574.079523.05574.127237-.01858.092777-.05574.127237c-.037159.03711-.079628.055666-.130059.055666s-.0929-.018556-.124751-.055666c-.03716-.03446-.05574-.076873-.05574-.127237Zm0-2.57389c0-.047714.01858-.092777.05574-.127237.031851-.03711.074319-.055666.124751-.055666s.0929.018556.130059.055666.05574.079523.05574.127237-.01858.092777-.05574.129887-.079628.055666-.130059.055666-.0929-.018555-.124751-.055666c-.03716-.03711-.05574-.082173-.05574-.129887Zm1.287326,3.104042c0-.047713.018579-.090125.055739-.124585s.079629-.053016.132714-.053016c.050432,0,.0929.018556.127406.053016s.053085.076872.053085.124585c0,.050365-.018579.095428-.053085.129888s-.076974.053015-.127406.053015-.095554-.018555-.132714-.053015-.055739-.076872-.055739-.129888Zm0-3.634194c0-.050365.018579-.095428.055739-.129888s.079629-.053015.132714-.053015c.050432,0,.0929.018555.127406.053015s.053085.079523.053085.129888c0,.047713-.018579.090125-.053085.124585s-.076974.053016-.127406.053016-.095554-.018556-.132714-.053016-.055739-.076872-.055739-.124585Zm1.292634,3.104042c0-.047714.01858-.092777.05574-.127237.031851-.03711.07432-.055666.124751-.055666s.0929.018556.13006.055666.05574.079523.05574.127237-.01858.092777-.05574.127237c-.03716.03711-.079629.055666-.13006.055666s-.0929-.018556-.124751-.055666c-.03716-.03446-.05574-.076873-.05574-.127237Zm0-2.57389c0-.047714.01858-.092777.05574-.127237.031851-.03711.07432-.055666.124751-.055666s.0929.018556.13006.055666.05574.079523.05574.127237-.01858.092777-.05574.129887-.079629.055666-.13006.055666-.0929-.018555-.124751-.055666c-.03716-.03711-.05574-.082173-.05574-.129887Zm.530856,1.290921c0-.050364.01858-.095427.053086-.132538s.079628-.055666.130059-.055666c.047777,0,.090246.018555.124751.055666s.053086.079523.053086.132538c0,.047714-.01858.090126-.053086.124586s-.076974.053015-.124751.053015c-.050431,0-.095554-.018555-.130059-.053015s-.053086-.076872-.053086-.124586Z" transform="translate(6.167911 10.59)"/></svg>
