<svg id="ez25C6o7hvZ1" xmlns="http://www.w3.org/2000/svg" xmlns:xlink="http://www.w3.org/1999/xlink" viewBox="0 0 30 30" shape-rendering="geometricPrecision" text-rendering="geometricPrecision" project-id="2f9828e6572448e2a6c0934710ad7f28" export-id="30f5c19fcefc4a3db381a86a4ae6e1a2" cached="true"><path d="M4.64,16.95c0-1.16.35-2.18,1.06-3.08s1.62-1.48,2.74-1.76c.31-1.36,1.01-2.48,2.1-3.36s2.34-1.31,3.75-1.31c1.38,0,2.6.43,3.68,1.28s1.78,1.95,2.1,3.29h.32c.89,0,1.72.22,2.48.66s1.37,1.04,1.81,1.8.67,1.59.67,2.48c0,1.32-.46,2.47-1.39,3.42-.92.96-2.05,1.46-3.38,1.5-.13,0-.2-.06-.2-.17v-1.33c0-.12.07-.18.2-.18.85-.04,1.58-.38,2.18-1.02s.9-1.38.9-2.23c0-.89-.32-1.65-.97-2.3s-1.42-.97-2.32-.97h-1.61c-.12,0-.18-.06-.18-.17l-.08-.58c-.11-1.08-.58-1.99-1.39-2.72-.82-.73-1.76-1.1-2.85-1.1-1.1,0-2.05.37-2.86,1.11s-1.27,1.65-1.37,2.75l-.06.5c0,.12-.07.19-.2.19l-.53.07c-.83.07-1.53.41-2.1,1.04s-.85,1.35-.85,2.19c0,.85.3,1.59.9,2.23s1.33.97,2.18,1.02c.11,0,.17.06.17.18v1.33c0,.11-.06.17-.17.17-1.34-.04-2.47-.54-3.4-1.5-.87-.96-1.33-2.11-1.33-3.43Z" transform="translate(0.632911 -2.44)"/><path d="M7.46,8.453181c0-.040292.014864-.076342.042468-.10603s.061579-.044533.101924-.044533.076443.014844.104048.044533.042468.063618.042468.10603c0,.040292-.014864.074221-.042468.101789s-.063703.042412-.101924.042412-.07432-.014844-.101924-.042412C7.472741,8.525282,7.46,8.491352,7.46,8.453181Zm.420438,0c0-.040292.014864-.076342.042468-.10603s.061579-.044533.101924-.044533h.685866l-.484141-.483499c-.029728-.025447-.044592-.059377-.044592-.099669s.014864-.074221.044592-.10391.063703-.044533.104048-.044533.07432.014844.104048.044533l.482017.481378v-.680716c0-.040292.014864-.076342.044592-.10603s.063703-.044533.106171-.044533c.040345,0,.07432.014844.101924.044533s.042468.063618.042468.10603v.684957l.486264-.48774c.029728-.029689.063703-.044533.101924-.044533s.07432.014844.104048.044533c.025481.029689.038222.063618.038222.10391s-.012741.074221-.038222.099669l-.484141.483499h.685866c.038222,0,.072196.014844.099801.044533s.042468.063618.042468.10603c0,.038171-.014864.072101-.042468.099669s-.061579.042412-.099801.042412h-.685866l.486264.48562c.025481.025447.038222.059377.038222.099669s-.012741.074221-.038222.10391c-.029728.029689-.065826.044533-.104048.044533s-.07432-.014844-.101924-.044533l-.486264-.48774v.687078c0,.040292-.014864.076342-.042468.10391s-.061579.042412-.101924.042412-.076443-.014844-.106171-.042412-.044592-.063618-.044592-.10391v-.682836l-.482017.481378c-.029728.029689-.063703.044533-.104048.044533s-.07432-.014844-.104048-.044533-.044592-.063618-.044592-.10391.014864-.072101.044592-.099669l.488388-.48562h-.687989c-.040345,0-.07432-.014844-.101924-.042412-.033975-.023327-.046715-.057256-.046715-.095427Zm.002123,1.026375c0-.038171.014864-.074221.044592-.101789.025481-.029689.059456-.044533.099801-.044533s.07432.014844.104048.044533.044592.063618.044592.101789-.014864.074221-.044592.101789c-.029728.029689-.063703.044533-.104048.044533s-.07432-.014844-.099801-.044533c-.029728-.027568-.044592-.061498-.044592-.101789Zm0-2.059112c0-.038171.014864-.074221.044592-.101789.025481-.029689.059456-.044533.099801-.044533s.07432.014844.104048.044533.044592.063618.044592.101789-.014864.074221-.044592.10391-.063703.044533-.104048.044533-.07432-.014844-.099801-.044533c-.029728-.029689-.044592-.065739-.044592-.10391ZM8.912422,9.903678c0-.038171.014864-.072101.044592-.099669s.063703-.042412.106171-.042412c.040345,0,.07432.014844.101924.042412s.042468.061498.042468.099669c0,.040292-.014864.076342-.042468.10391s-.061579.042412-.101924.042412-.076443-.014844-.106171-.042412-.044592-.061498-.044592-.10391Zm0-2.907356c0-.040292.014864-.076342.044592-.10391s.063703-.042412.106171-.042412c.040345,0,.07432.014844.101924.042412s.042468.063618.042468.10391c0,.038171-.014864.072101-.042468.099669s-.061579.042412-.101924.042412-.076443-.014844-.106171-.042412-.044592-.061498-.044592-.099669ZM9.94653,9.479556c0-.038171.014864-.074221.044592-.101789.025481-.029689.059456-.044533.099801-.044533s.07432.014844.104048.044533.044592.063618.044592.101789-.014864.074221-.044592.101789c-.029728.029689-.063703.044533-.104048.044533s-.07432-.014844-.099801-.044533c-.029728-.027568-.044592-.061498-.044592-.101789Zm0-2.059112c0-.038171.014864-.074221.044592-.101789.025481-.029689.059456-.044533.099801-.044533s.07432.014844.104048.044533.044592.063618.044592.101789-.014864.074221-.044592.10391-.063703.044533-.104048.044533-.07432-.014844-.099801-.044533c-.029728-.029689-.044592-.065739-.044592-.10391Zm.424685,1.032737c0-.040292.014864-.076342.042468-.10603s.063703-.044533.104048-.044533c.038222,0,.072196.014844.099801.044533s.042468.063618.042468.10603c0,.038171-.014864.072101-.042468.099669s-.061579.042412-.099801.042412c-.040345,0-.076443-.014844-.104048-.042412s-.042468-.061498-.042468-.099669Z" transform="translate(2.981516 10.99)"/><path d="M7.46,8.453181c0-.040291.014864-.076342.042469-.10603s.061579-.044533.101924-.044533.076443.014844.104048.044533.042468.063618.042468.10603c0,.040292-.014864.074222-.042468.10179s-.063703.042412-.101925.042412-.074319-.014844-.101924-.042412C7.472741,8.525282,7.46,8.491352,7.46,8.453181Zm.420438,0c0-.040291.014864-.076342.042469-.10603s.061579-.044533.101924-.044533h.685866l-.484141-.483499c-.029728-.025447-.044592-.059377-.044592-.099669s.014864-.074221.044592-.10391.063702-.044533.104048-.044533.07432.014844.104048.044533l.482017.481378v-.680716c0-.040291.014864-.076342.044592-.10603s.063702-.044533.106171-.044533c.040345,0,.07432.014845.101924.044533s.042469.063618.042469.10603v.684958l.486264-.487741c.029728-.029688.063703-.044533.101925-.044533s.074319.014845.104047.044533c.025482.029689.038222.063618.038222.10391s-.01274.074221-.038222.099669l-.484141.483498h.685866c.038222,0,.072196.014845.099801.044533s.042469.063618.042469.10603c0,.038171-.014864.072101-.042469.099669s-.061579.042412-.099801.042412h-.685866l.486265.48562c.025481.025447.038222.059377.038222.099669s-.012741.074221-.038222.10391c-.029728.029689-.065826.044533-.104048.044533s-.07432-.014844-.101925-.044533l-.486264-.48774v.687078c0,.040291-.014864.076342-.042468.10391s-.061579.042412-.101925.042412-.076443-.014844-.106171-.042412-.044592-.063618-.044592-.10391v-.682837l-.482017.481378c-.029728.029689-.063703.044533-.104048.044533s-.07432-.014844-.104048-.044533-.044592-.063618-.044592-.10391.014864-.072101.044592-.099669l.488388-.485619h-.68799c-.040345,0-.07432-.014845-.101924-.042413-.033975-.023326-.046716-.057256-.046716-.095427Zm.002124,1.026375c0-.038171.014864-.074222.044592-.10179.025481-.029688.059455-.044533.099801-.044533s.07432.014845.104047.044533.044592.063618.044592.10179-.014864.074222-.044592.10179c-.029727.029688-.063702.044533-.104047.044533s-.07432-.014845-.099801-.044533c-.029728-.027568-.044592-.061498-.044592-.10179Zm0-2.059112c0-.038171.014864-.074222.044592-.10179.025481-.029688.059455-.044533.099801-.044533s.07432.014845.104047.044533.044592.063618.044592.10179-.014864.074222-.044592.10391-.063702.044533-.104047.044533-.07432-.014844-.099801-.044533c-.029728-.029688-.044592-.065738-.044592-.10391ZM8.912422,9.903678c0-.03817.014863-.0721.044591-.099668s.063703-.042413.106171-.042413c.040346,0,.07432.014845.101925.042413s.042468.061498.042468.099668c0,.040292-.014863.076342-.042468.10391s-.061579.042412-.101925.042412-.076443-.014844-.106171-.042412-.044591-.061498-.044591-.10391Zm0-2.907355c0-.040292.014863-.076342.044591-.10391s.063703-.042412.106171-.042412c.040346,0,.07432.014844.101925.042412s.042468.063618.042468.10391c0,.03817-.014863.0721-.042468.099668s-.061579.042413-.101925.042413-.076443-.014845-.106171-.042413-.044591-.061498-.044591-.099668ZM9.94653,9.479556c0-.038171.014864-.074222.044592-.10179.025481-.029688.059456-.044533.099801-.044533s.07432.014845.104048.044533.044592.063618.044592.10179-.014864.074222-.044592.10179c-.029728.029688-.063703.044533-.104048.044533s-.07432-.014845-.099801-.044533c-.029728-.027568-.044592-.061498-.044592-.10179Zm0-2.059112c0-.038171.014864-.074222.044592-.10179.025481-.029688.059456-.044533.099801-.044533s.07432.014845.104048.044533.044592.063618.044592.10179-.014864.074222-.044592.10391-.063703.044533-.104048.044533-.07432-.014844-.099801-.044533c-.029728-.029688-.044592-.065738-.044592-.10391Zm.424685,1.032737c0-.040291.014864-.076342.042469-.10603s.063702-.044533.104047-.044533c.038222,0,.072197.014844.099801.044533s.042469.063618.042469.10603c0,.038171-.014864.072101-.042469.099669s-.061579.042412-.099801.042412c-.040345,0-.076443-.014844-.104047-.042412s-.042469-.061498-.042469-.099669Z" transform="translate(6.540769 10.99)"/><path d="M7.46,8.453181c0-.040291.014864-.076342.042469-.10603s.061579-.044533.101924-.044533.076443.014844.104048.044533.042468.063618.042468.10603c0,.040292-.014864.074222-.042468.10179s-.063703.042412-.101925.042412-.074319-.014844-.101924-.042412C7.472741,8.525282,7.46,8.491352,7.46,8.453181Zm.420438,0c0-.040291.014864-.076342.042469-.10603s.061579-.044533.101924-.044533h.685866l-.484141-.483499c-.029728-.025447-.044592-.059377-.044592-.099669s.014864-.074221.044592-.10391.063702-.044533.104048-.044533.07432.014844.104048.044533l.482017.481378v-.680716c0-.040291.014864-.076342.044592-.10603s.063702-.044533.106171-.044533c.040345,0,.07432.014845.101924.044533s.042469.063618.042469.10603v.684958l.486264-.487741c.029728-.029688.063703-.044533.101925-.044533s.074319.014845.104047.044533c.025482.029689.038222.063618.038222.10391s-.01274.074221-.038222.099669l-.484141.483498h.685866c.038222,0,.072196.014845.099801.044533s.042469.063618.042469.10603c0,.038171-.014864.072101-.042469.099669s-.061579.042412-.099801.042412h-.685866l.486265.48562c.025481.025447.038222.059377.038222.099669s-.012741.074221-.038222.10391c-.029728.029689-.065826.044533-.104048.044533s-.07432-.014844-.101925-.044533l-.486264-.48774v.687078c0,.040291-.014864.076342-.042468.10391s-.061579.042412-.101925.042412-.076443-.014844-.106171-.042412-.044592-.063618-.044592-.10391v-.682837l-.482017.481378c-.029728.029689-.063703.044533-.104048.044533s-.07432-.014844-.104048-.044533-.044592-.063618-.044592-.10391.014864-.072101.044592-.099669l.488388-.485619h-.68799c-.040345,0-.07432-.014845-.101924-.042413-.033975-.023326-.046716-.057256-.046716-.095427Zm.002124,1.026375c0-.038171.014864-.074222.044592-.10179.025481-.029688.059455-.044533.099801-.044533s.07432.014845.104047.044533.044592.063618.044592.10179-.014864.074222-.044592.10179c-.029727.029688-.063702.044533-.104047.044533s-.07432-.014845-.099801-.044533c-.029728-.027568-.044592-.061498-.044592-.10179Zm0-2.059112c0-.038171.014864-.074222.044592-.10179.025481-.029688.059455-.044533.099801-.044533s.07432.014845.104047.044533.044592.063618.044592.10179-.014864.074222-.044592.10391-.063702.044533-.104047.044533-.07432-.014844-.099801-.044533c-.029728-.029688-.044592-.065738-.044592-.10391ZM8.912422,9.903678c0-.03817.014863-.0721.044591-.099668s.063703-.042413.106171-.042413c.040346,0,.07432.014845.101925.042413s.042468.061498.042468.099668c0,.040292-.014863.076342-.042468.10391s-.061579.042412-.101925.042412-.076443-.014844-.106171-.042412-.044591-.061498-.044591-.10391Zm0-2.907355c0-.040292.014863-.076342.044591-.10391s.063703-.042412.106171-.042412c.040346,0,.07432.014844.101925.042412s.042468.063618.042468.10391c0,.03817-.014863.0721-.042468.099668s-.061579.042413-.101925.042413-.076443-.014845-.106171-.042413-.044591-.061498-.044591-.099668ZM9.94653,9.479556c0-.038171.014864-.074222.044592-.10179.025481-.029688.059456-.044533.099801-.044533s.07432.014845.104048.044533.044592.063618.044592.10179-.014864.074222-.044592.10179c-.029728.029688-.063703.044533-.104048.044533s-.07432-.014845-.099801-.044533c-.029728-.027568-.044592-.061498-.044592-.10179Zm0-2.059112c0-.038171.014864-.074222.044592-.10179.025481-.029688.059456-.044533.099801-.044533s.07432.014845.104048.044533.044592.063618.044592.10179-.014864.074222-.044592.10391-.063703.044533-.104048.044533-.07432-.014844-.099801-.044533c-.029728-.029688-.044592-.065738-.044592-.10391Zm.424685,1.032737c0-.040291.014864-.076342.042469-.10603s.063702-.044533.104047-.044533c.038222,0,.072197.014844.099801.044533s.042469.063618.042469.10603c0,.038171-.014864.072101-.042469.099669s-.061579.042412-.099801.042412c-.040345,0-.076443-.014844-.104047-.042412s-.042469-.061498-.042469-.099669Z" transform="translate(10.133675 10.99)"/></svg>
